<svg xmlns="http://www.w3.org/2000/svg" viewBox="0 0 500 3759.58"><defs><style>.cls-1{fill:#fff;}.cls-2{fill:#293241;}.cls-3{fill:#3d5a80;}.cls-4{fill:#98c1d9;}.cls-5{fill:#e0fbfc;}</style></defs><g id="Layer_1" data-name="Layer 1"><rect class="cls-1" width="500" height="1037.73"/><rect class="cls-1" y="1037.73" width="500" height="1037.73"/><rect class="cls-1" y="1760.26" width="500" height="1037.73"/><rect class="cls-2" y="2721.86" width="500" height="1037.73"/><path class="cls-3" d="M0,2794.28s21.9,27,91.66,27c68.71,0,88.09-36.7,145.56-36.7,60.23,0,99.69,36.7,170,36.7,48.08,0,92.82-27,92.82-27V1679.41H0Z"/></g><g id="Layer_2" data-name="Layer 2"><path class="cls-4" d="M0,1906.1s141.63,49.86,261.29-36C424.83,1752.68,500,1799.74,500,1799.74V717.82L0,742.75Z"/><path class="cls-5" d="M0,0H500V934.12s-67.53,64.82-160.6,64.82-136.28-79.77-211.06-79.77S0,972.35,0,972.35V0Z"/></g></svg>